<svg width="1200" height="1200" viewBox="0 0 1200 1200" fill="none" xmlns="http://www.w3.org/2000/svg">
  <rect width="1200" height="1200" fill="#F7F5F1"/>
  <ellipse cx="600" cy="932" rx="220" ry="34" fill="#E2DDD6"/>
  <rect x="388" y="282" width="350" height="448" rx="28" fill="#FFFFFF"/>
  <rect x="402" y="296" width="322" height="420" rx="22" fill="#FBFBFA" stroke="#E6E0D9" stroke-width="8"/>
  <path d="M738 384H814C881.379 384 936 438.621 936 506C936 573.379 881.379 628 814 628H738" stroke="#E3DDD5" stroke-width="36" stroke-linecap="round"/>
  <path d="M786 446H814C847.137 446 874 472.863 874 506C874 539.137 847.137 566 814 566H786" stroke="#F1ECE5" stroke-width="18" stroke-linecap="round"/>
  <rect x="448" y="786" width="230" height="20" rx="10" fill="#E9E3DB"/>
  <rect x="456" y="360" width="214" height="250" rx="18" fill="#FFFFFF"/>
  <path d="M514 514C560 476 622 476 664 514" stroke="#E9E3DB" stroke-width="16" stroke-linecap="round"/>
</svg>
